<svg id="ART" xmlns="http://www.w3.org/2000/svg" xmlns:xlink="http://www.w3.org/1999/xlink" viewBox="0 0 48 48"><defs><style>.cls-1{fill:url(#linear-gradient);}.cls-2{fill:url(#linear-gradient-2);}.cls-3{fill:url(#linear-gradient-3);}.cls-4{fill:url(#linear-gradient-4);}.cls-5{fill:url(#linear-gradient-5);}.cls-6{fill:url(#linear-gradient-6);}.cls-7{fill:url(#linear-gradient-7);}.cls-8{fill:url(#linear-gradient-8);}.cls-9{fill:url(#linear-gradient-9);}.cls-10{fill:url(#linear-gradient-10);}</style><linearGradient id="linear-gradient" x1="16.24" y1="29.84" x2="67.74" y2="-8.91" gradientUnits="userSpaceOnUse"><stop offset="0" stop-color="#273a9b"/><stop offset="0.56" stop-color="#202f65"/><stop offset="1" stop-color="#021e2f"/></linearGradient><linearGradient id="linear-gradient-2" x1="34.5" y1="35.06" x2="34.5" y2="6.44" gradientUnits="userSpaceOnUse"><stop offset="0" stop-color="#fff"/><stop offset="0.52" stop-color="#cce2e6"/><stop offset="1" stop-color="#8fa1bb"/></linearGradient><linearGradient id="linear-gradient-3" x1="38.7" y1="34.56" x2="39.08" y2="16.25" xlink:href="#linear-gradient-2"/><linearGradient id="linear-gradient-4" x1="45.19" y1="35.39" x2="22.94" y2="-3.49" gradientUnits="userSpaceOnUse"><stop offset="0" stop-color="#27e9de"/><stop offset="0.52" stop-color="#03a4ec"/><stop offset="1" stop-color="#2547a8"/></linearGradient><linearGradient id="linear-gradient-5" x1="63.88" y1="13.07" x2="9.76" y2="21.95" xlink:href="#linear-gradient-4"/><linearGradient id="linear-gradient-6" x1="24" y1="36.88" x2="24" y2="-7.63" gradientUnits="userSpaceOnUse"><stop offset="0" stop-color="#f3c57a"/><stop offset="0.49" stop-color="#f39369"/><stop offset="1" stop-color="#e94867"/></linearGradient><linearGradient id="linear-gradient-7" x1="18.91" y1="29.09" x2="36.56" y2="11.44" xlink:href="#linear-gradient-2"/><linearGradient id="linear-gradient-8" x1="15.06" y1="32.94" x2="31.48" y2="16.52" xlink:href="#linear-gradient-2"/><linearGradient id="linear-gradient-9" x1="15.87" y1="32.13" x2="-4.59" y2="52.59" xlink:href="#linear-gradient"/><linearGradient id="linear-gradient-10" x1="45.98" y1="41.28" x2="16.24" y2="19.54" xlink:href="#linear-gradient-4"/></defs><title>pie, chart, graph, analytics, statistics</title><path class="cls-1" d="M24,45A21,21,0,1,1,45,24,21,21,0,0,1,24,45Zm0-30a9,9,0,1,0,9,9A9,9,0,0,0,24,15Z"/><path class="cls-2" d="M33,24a9,9,0,0,1-2.61,6.33l8.52,8.44A21,21,0,0,0,24,3V15A9,9,0,0,1,33,24Z"/><path class="cls-3" d="M33,24a9,9,0,0,1-.14,1.5H44.92c0-.5.08-1,.08-1.5s0-1-.08-1.5H32.86A9,9,0,0,1,33,24Z"/><path class="cls-4" d="M24,3V15a9,9,0,0,1,9,9H45A21,21,0,0,0,24,3Z"/><path class="cls-5" d="M24,13.5v6A4.51,4.51,0,0,1,28.5,24h6A10.51,10.51,0,0,0,24,13.5Z"/><path class="cls-6" d="M24,15a9,9,0,1,0,9,9A9,9,0,0,0,24,15Z"/><path class="cls-7" d="M15,24a9,9,0,0,0,9,9V24Z"/><path class="cls-8" d="M15,24a9,9,0,0,0,.12,1.41h7.47v7.47A9,9,0,0,0,24,33V24Z"/><path class="cls-9" d="M24,15v9h9A9,9,0,0,0,24,15Z"/><path class="cls-10" d="M24,33a9,9,0,0,0,9-9H24Z"/></svg>